<?xml version="1.0" encoding="utf-8"?>
<!-- Generator: Adobe Illustrator 24.1.0, SVG Export Plug-In . SVG Version: 6.00 Build 0)  -->
<svg version="1.1" xmlns="http://www.w3.org/2000/svg" xmlns:xlink="http://www.w3.org/1999/xlink" x="0px" y="0px"
	 viewBox="0 0 130 30" style="enable-background:new 0 0 130 30;" xml:space="preserve">
<style type="text/css">
	.st0{fill:#C6232F;}
	.st1{fill:#FFFFFF;}
	.st2{fill:#2F2F2F;}
	.st3{fill:#6E6E6E;}
</style>
<g id="switcher">
	<g>
		<g id="background">
			<path class="st0" d="M79.1,6.6h-32c-5,0-9,4-9,9c0,5,4,9,9,9h32c5,0,9-4,9-9C88.1,10.6,84.1,6.6,79.1,6.6z"/>
		</g>
		<g id="ball">
			<circle class="st1" cx="48.2" cy="15.6" r="7"/>
		</g>
	</g>
</g>
<g id="danish">
	<g>
		<rect x="3.8" y="7.3" class="st0" width="27.6" height="17.5"/>
		<rect x="12.2" y="7.3" class="st1" width="2.5" height="17.5"/>
		
			<rect x="16.4" y="2.3" transform="matrix(9.078976e-07 1 -1 9.078976e-07 33.691 -1.5389)" class="st1" width="2.5" height="27.6"/>
	</g>
</g>
<g id="english">
	<g>
		<g>
			<rect x="96.5" y="6.2" class="st2" width="27.6" height="17.5"/>
			<rect x="108.1" y="6.2" class="st1" width="4" height="17.5"/>
			
				<rect x="108.3" y="1.2" transform="matrix(-4.507644e-06 1 -1 -4.507644e-06 125.2753 -95.2752)" class="st1" width="4" height="27.6"/>
			<polygon class="st1" points="98.2,6.2 96.5,6.2 96.5,8.4 122.4,23.8 124.1,23.8 124.1,21.6 			"/>
			<polygon class="st1" points="96.5,23.8 98.9,23.8 124.1,7.9 124.1,6.2 121.6,6.2 96.5,22.1 			"/>
			<rect x="109" y="6.2" class="st3" width="2.3" height="17.5"/>
			
				<rect x="109.2" y="1.2" transform="matrix(-7.985403e-06 1 -1 -7.985403e-06 125.2757 -95.2751)" class="st3" width="2.2" height="27.6"/>
		</g>
	</g>
</g>
</svg>
